<?xml version="1.0" encoding="UTF-8" standalone="no"?>
<svg
   xmlns:dc="http://purl.org/dc/elements/1.1/"
   xmlns:cc="http://creativecommons.org/ns#"
   xmlns:rdf="http://www.w3.org/1999/02/22-rdf-syntax-ns#"
   xmlns:svg="http://www.w3.org/2000/svg"
   xmlns="http://www.w3.org/2000/svg"
   xmlns:sodipodi="http://sodipodi.sourceforge.net/DTD/sodipodi-0.dtd"
   xmlns:inkscape="http://www.inkscape.org/namespaces/inkscape"
   viewBox="0 0 506.37897 506.36943"
   version="1.1"
   id="svg204"
   sodipodi:docname="lhsu-logo.svg"
   width="506.37897"
   height="506.36945"
   inkscape:version="1.0.1 (3bc2e813f5, 2020-09-07)">
  <style
     id="style1035"></style>
  <metadata
     id="metadata210">
    <rdf:RDF>
      <cc:Work
         rdf:about="">
        <dc:format>image/svg+xml</dc:format>
        <dc:type
           rdf:resource="http://purl.org/dc/dcmitype/StillImage" />
      </cc:Work>
    </rdf:RDF>
  </metadata>
  <defs
     id="defs208" />
  <sodipodi:namedview
     pagecolor="#ffffff"
     bordercolor="#666666"
     borderopacity="1"
     objecttolerance="10"
     gridtolerance="10"
     guidetolerance="10"
     inkscape:pageopacity="0"
     inkscape:pageshadow="2"
     inkscape:window-width="1920"
     inkscape:window-height="1057"
     id="namedview206"
     showgrid="false"
     inkscape:zoom="1.0796811"
     inkscape:cx="287.14886"
     inkscape:cy="157.31449"
     inkscape:window-x="-8"
     inkscape:window-y="-8"
     inkscape:window-maximized="1"
     inkscape:current-layer="圖層_17"
     inkscape:document-rotation="0" />
  <title
     id="title2">SU_logo51</title>
  <g
     id="圖層_17"
     data-name="圖層 17"
     transform="matrix(0.98529878,0,0,0.98529877,-91.62516,-17.36317)"
     style="stroke-width:1.01492">
    <circle
       cx="351.10001"
       cy="274.57999"
       r="251.69"
       style="fill:#fffde5;stroke-width:1.01492"
       id="circle17" />
    <circle
       cx="351.10001"
       cy="274.57999"
       r="203.87"
       style="fill:#3e788f;stroke-width:1.01492"
       id="circle19" />
    <path
       d="M 627.53,458.93"
       transform="translate(-96.81,-23.54)"
       style="fill:none;stroke:#e4007f;stroke-width:3.04476px;stroke-linecap:round;stroke-miterlimit:10"
       id="path21" />
    <path
       d="m 514.95,55.79 a 251.84,251.84 0 0 0 -68.17,-9.35 c -115.52,0 -212.85,77.83 -242.44,183.91"
       transform="translate(-96.81,-23.54)"
       style="fill:none;stroke:#3c788f;stroke-width:3.04476px;stroke-linecap:round;stroke-miterlimit:10"
       id="path23" />
    <path
       d="M 689,229.52 A 252.29,252.29 0 0 0 532.42,61.4"
       transform="translate(-96.81,-23.54)"
       style="fill:none;stroke:#3c788f;stroke-width:3.04476px;stroke-linecap:round;stroke-miterlimit:10"
       id="path25" />
    <path
       d="m 636.87,463.11 v 0 c 51.54342,-59.48348 72.35259,-139.62432 56.26,-216.67"
       transform="translate(-96.81,-23.54)"
       style="fill:none;stroke:#3c788f;stroke-width:3.04476px;stroke-linecap:round;stroke-miterlimit:10"
       id="path27"
       sodipodi:nodetypes="ccc" />
    <path
       d="m 592.59,503.28 a 253,253 0 0 0 27.2,-22.38"
       transform="translate(-96.81,-23.54)"
       style="fill:none;stroke:#3c788f;stroke-width:3.04476px;stroke-linecap:round;stroke-miterlimit:10"
       id="path29" />
    <path
       d="m 254.39,460.37 a 251.7,251.7 0 0 0 322.18,53.4"
       transform="translate(-96.81,-23.54)"
       style="fill:none;stroke:#3c788f;stroke-width:3.04476px;stroke-linecap:round;stroke-miterlimit:10"
       id="path31" />
    <path
       d="m 195.13,301.23 c 0.56269,52.03415 17.31486,102.60171 47.93,144.68 v 0"
       transform="translate(-96.81,-23.54)"
       style="fill:none;stroke:#3c788f;stroke-width:3.04476px;stroke-linecap:round;stroke-miterlimit:10"
       id="path33"
       sodipodi:nodetypes="ccc" />
    <path
       d="m 200.08,248 c -1.45536,7.22684 -2.75466,12.44831 -3.70539,18.27438 -0.57136,3.50134 -1.01683,7.22104 -1.29461,11.72562"
       transform="translate(-96.81,-23.54)"
       style="fill:none;stroke:#3c788f;stroke-width:3.04476px;stroke-linecap:round;stroke-miterlimit:10"
       id="path35"
       sodipodi:nodetypes="csc" />
    <circle
       cx="354.12"
       cy="282.01999"
       r="69.309998"
       style="fill:none;stroke:#fbfbfb;stroke-width:2.02984px;stroke-linecap:round;stroke-miterlimit:10"
       id="circle37" />
    <circle
       cx="354.12"
       cy="282.01999"
       r="58.029999"
       style="fill:none;stroke:#fbfbfb;stroke-width:2.02984px;stroke-linecap:round;stroke-miterlimit:10"
       id="circle39" />
    <circle
       cx="351.82999"
       cy="279.73999"
       r="39.380001"
       style="fill:none;stroke:#fbfbfb;stroke-width:2.02984px;stroke-linecap:round;stroke-miterlimit:10"
       id="circle41" />
    <circle
       cx="351.82999"
       cy="279.73999"
       r="19.35"
       style="fill:none;stroke:#fbfbfb;stroke-width:2.02984px;stroke-linecap:round;stroke-miterlimit:10"
       id="circle43" />
    <line
       x1="316.47"
       y1="112.23"
       x2="388.78"
       y2="112.23"
       style="fill:none;stroke:#fbfbfb;stroke-width:2.02984px;stroke-linecap:round;stroke-miterlimit:10"
       id="line45" />
    <line
       x1="316.47"
       y1="123.64"
       x2="388.78"
       y2="123.64"
       style="fill:none;stroke:#fbfbfb;stroke-width:2.02984px;stroke-linecap:round;stroke-miterlimit:10"
       id="line47" />
    <line
       x1="316.47"
       y1="135.82001"
       x2="388.78"
       y2="135.82001"
       style="fill:none;stroke:#fbfbfb;stroke-width:2.02984px;stroke-linecap:round;stroke-miterlimit:10"
       id="line49" />
    <line
       x1="323.85999"
       y1="141.53"
       x2="323.85999"
       y2="158.37"
       style="fill:none;stroke:#fbfbfb;stroke-width:2.02984px;stroke-linecap:round;stroke-miterlimit:10"
       id="line51" />
    <line
       x1="378.95001"
       y1="141.53"
       x2="378.95001"
       y2="158.37"
       style="fill:none;stroke:#fbfbfb;stroke-width:2.02984px;stroke-linecap:round;stroke-miterlimit:10"
       id="line53" />
    <line
       x1="323.85999"
       y1="192.33"
       x2="323.85999"
       y2="209.17999"
       style="fill:none;stroke:#fbfbfb;stroke-width:2.02984px;stroke-linecap:round;stroke-miterlimit:10"
       id="line55" />
    <line
       x1="378.95001"
       y1="192.33"
       x2="378.95001"
       y2="209.17999"
       style="fill:none;stroke:#fbfbfb;stroke-width:2.02984px;stroke-linecap:round;stroke-miterlimit:10"
       id="line57" />
    <line
       x1="250.50999"
       y1="268.82999"
       x2="250.8"
       y2="321.35001"
       style="fill:none;stroke:#fbfbfb;stroke-width:2.02984px;stroke-linecap:round;stroke-miterlimit:10"
       id="line59" />
    <line
       x1="264.92001"
       y1="268.82999"
       x2="265.20999"
       y2="321.35001"
       style="fill:none;stroke:#fbfbfb;stroke-width:2.02984px;stroke-linecap:round;stroke-miterlimit:10"
       id="line61" />
    <line
       x1="439.54999"
       y1="268.82999"
       x2="439.82999"
       y2="321.35001"
       style="fill:none;stroke:#fbfbfb;stroke-width:2.02984px;stroke-linecap:round;stroke-miterlimit:10"
       id="line63" />
    <line
       x1="453.54999"
       y1="268.82999"
       x2="453.84"
       y2="321.35001"
       style="fill:none;stroke:#fbfbfb;stroke-width:2.02984px;stroke-linecap:round;stroke-miterlimit:10"
       id="line65" />
    <line
       x1="354.12"
       y1="379.29001"
       x2="354.12"
       y2="436.94"
       style="fill:none;stroke:#fbfbfb;stroke-width:2.02984px;stroke-linecap:round;stroke-miterlimit:10"
       id="line67" />
    <line
       x1="363.82001"
       y1="379.29001"
       x2="368.39001"
       y2="432.37"
       style="fill:none;stroke:#fbfbfb;stroke-width:2.02984px;stroke-linecap:round;stroke-miterlimit:10"
       id="line69" />
    <line
       x1="373.82001"
       y1="379.29001"
       x2="382.38"
       y2="426.95001"
       style="fill:none;stroke:#fbfbfb;stroke-width:2.02984px;stroke-linecap:round;stroke-miterlimit:10"
       id="line71" />
    <line
       x1="382.38"
       y1="376.14999"
       x2="397.22"
       y2="424.98999"
       style="fill:none;stroke:#fbfbfb;stroke-width:2.02984px;stroke-linecap:round;stroke-miterlimit:10"
       id="line73" />
    <line
       x1="391.20999"
       y1="372.72"
       x2="408.92001"
       y2="420.39001"
       style="fill:none;stroke:#fbfbfb;stroke-width:2.02984px;stroke-linecap:round;stroke-miterlimit:10"
       id="line75" />
    <line
       x1="399.35999"
       y1="369.29999"
       x2="419.48001"
       y2="416.67999"
       style="fill:none;stroke:#fbfbfb;stroke-width:2.02984px;stroke-linecap:round;stroke-miterlimit:10"
       id="line77" />
    <line
       x1="406.92999"
       y1="365.59"
       x2="428.32999"
       y2="414.10999"
       style="fill:none;stroke:#fbfbfb;stroke-width:2.02984px;stroke-linecap:round;stroke-miterlimit:10"
       id="line79" />
    <line
       x1="414.06"
       y1="357.60001"
       x2="439.54999"
       y2="409.82999"
       style="fill:none;stroke:#fbfbfb;stroke-width:2.02984px;stroke-linecap:round;stroke-miterlimit:10"
       id="line81" />
    <line
       x1="342.85999"
       y1="379.29001"
       x2="338.29001"
       y2="432.37"
       style="fill:none;stroke:#fbfbfb;stroke-width:2.02984px;stroke-linecap:round;stroke-miterlimit:10"
       id="line83" />
    <line
       x1="332.87"
       y1="379.29001"
       x2="324.31"
       y2="426.95001"
       style="fill:none;stroke:#fbfbfb;stroke-width:2.02984px;stroke-linecap:round;stroke-miterlimit:10"
       id="line85" />
    <line
       x1="324.31"
       y1="376.14999"
       x2="309.45999"
       y2="424.98999"
       style="fill:none;stroke:#fbfbfb;stroke-width:2.02984px;stroke-linecap:round;stroke-miterlimit:10"
       id="line87" />
    <line
       x1="315.47"
       y1="372.72"
       x2="297.76001"
       y2="420.39001"
       style="fill:none;stroke:#fbfbfb;stroke-width:2.02984px;stroke-linecap:round;stroke-miterlimit:10"
       id="line89" />
    <line
       x1="307.32001"
       y1="369.29999"
       x2="287.20001"
       y2="416.67999"
       style="fill:none;stroke:#fbfbfb;stroke-width:2.02984px;stroke-linecap:round;stroke-miterlimit:10"
       id="line91" />
    <line
       x1="299.76001"
       y1="365.59"
       x2="278.35001"
       y2="414.10999"
       style="fill:none;stroke:#fbfbfb;stroke-width:2.02984px;stroke-linecap:round;stroke-miterlimit:10"
       id="line93" />
    <line
       x1="292.62"
       y1="357.60001"
       x2="267.14001"
       y2="409.82999"
       style="fill:none;stroke:#fbfbfb;stroke-width:2.02984px;stroke-linecap:round;stroke-miterlimit:10"
       id="line95" />
    <path
       d="m 349.31,214.44 c 0,0 44.81,-26.83 69.36,-29.11 24.55,-2.28 46,-2 58.8,0 12.8,2 65.08,23.12 71.07,30.54"
       transform="translate(-96.81,-23.54)"
       style="fill:none;stroke:#fbfbfb;stroke-width:2.02984px;stroke-linecap:round;stroke-miterlimit:10"
       id="path97" />
    <path
       d="m 366,232.51 c 0,0 37.53,-22.48 58.1,-24.38 20.57,-1.9 38.5,-1.67 49.25,0 10.75,1.67 54.51,19.37 59.53,25.58"
       transform="translate(-96.81,-23.54)"
       style="fill:none;stroke:#fbfbfb;stroke-width:2.02984px;stroke-linecap:round;stroke-miterlimit:10"
       id="path99" />
    <path
       d="m 525.14,340.89 q 0,23.59 0.06,47.18"
       transform="translate(-96.81,-23.54)"
       style="fill:none;stroke:#fbfbfb;stroke-width:2.02984px;stroke-linecap:round;stroke-miterlimit:10"
       id="path101" />
    <path
       d="m 372.78,337.93 c 9.51,31.35 40.06,49.85 71.75,51.11 31.88,1.27 70.11,-15 79.76,-48"
       transform="translate(-96.81,-23.54)"
       style="fill:none;stroke:#fbfbfb;stroke-width:2.02984px;stroke-linecap:round;stroke-miterlimit:10"
       id="path103" />
    <path
       d="M 372.72,387.7 V 337.9"
       transform="translate(-96.81,-23.54)"
       style="fill:none;stroke:#fbfbfb;stroke-width:2.02984px;stroke-linecap:round;stroke-miterlimit:10"
       id="path105" />
    <polyline
       points="436.99 330.67 472 330.67 472 390.8"
       style="fill:none;stroke:#fbfbfb;stroke-width:2.02984px;stroke-linecap:round;stroke-miterlimit:10"
       id="polyline107" />
    <polyline
       points="265.21 330.67 230.19 330.67 230.19 390.8"
       style="fill:none;stroke:#fbfbfb;stroke-width:2.02984px;stroke-linecap:round;stroke-miterlimit:10"
       id="polyline109" />
    <polyline
       points="241.66 388.14 255.65 388.14 267.14 364.16"
       style="fill:none;stroke:#fbfbfb;stroke-width:2.02984px;stroke-linecap:round;stroke-miterlimit:10"
       id="polyline111" />
    <polyline
       points="463.79 388.99 449.8 388.99 438.32 365.01"
       style="fill:none;stroke:#fbfbfb;stroke-width:2.02984px;stroke-linecap:round;stroke-miterlimit:10"
       id="polyline113" />
    <polyline
       points="275.63 212.71 275.63 243.14 294.18 219.17 294.18 202.32"
       style="fill:none;stroke:#fbfbfb;stroke-width:2.02984px;stroke-linecap:round;stroke-miterlimit:10"
       id="polyline115" />
    <polyline
       points="428.65 212.71 428.65 243.14 410.1 219.17 410.1 202.32"
       style="fill:none;stroke:#fbfbfb;stroke-width:2.02984px;stroke-linecap:round;stroke-miterlimit:10"
       id="polyline117" />
    <path
       d="m 232.13,400.26 4.54,9.21 q 0.58,1.17 -0.35,1.63 c -0.64,0.31 -1.15,0.08 -1.53,-0.7 l -5.05,-10.26 a 2.18,2.18 0 0 1 -0.25,-1.6 2.25,2.25 0 0 1 1.21,-1.13 l 17,-8.37 c 0.8,-0.39 1.36,-0.27 1.67,0.36 0.31,0.63 0.08,1.19 -0.72,1.58 l -16,7.91 a 0.91,0.91 0 0 0 -0.52,1.37 z"
       transform="translate(-96.81,-23.54)"
       style="fill:#006f9e;stroke-width:1.01492"
       id="path119" />
    <path
       d="m 264.78,411.93 a 10.21,10.21 0 0 1 1.6,7.08 9.92,9.92 0 0 1 -2.06,4.7 14.33,14.33 0 0 1 -3.74,3.36 q -5.32,3.29 -10.09,1.76 a 10.19,10.19 0 0 1 -5.67,-4.61 9.78,9.78 0 0 1 0.59,-11.71 13.6,13.6 0 0 1 3.84,-3.51 13,13 0 0 1 6.89,-2.12 9.63,9.63 0 0 1 8.64,5.05 z m -1.72,1.07 a 7.92,7.92 0 0 0 -5.06,-3.73 8.08,8.08 0 0 0 -3.62,0 12.63,12.63 0 0 0 -4,1.63 11.47,11.47 0 0 0 -4,4 7.59,7.59 0 0 0 -1,4.73 8.62,8.62 0 0 0 1.24,3.52 7.79,7.79 0 0 0 5.06,3.73 8.05,8.05 0 0 0 3.65,0 12.18,12.18 0 0 0 3.88,-1.55 q 4.09,-2.53 5,-6.14 A 7.78,7.78 0 0 0 263.06,413 Z"
       transform="translate(-96.81,-23.54)"
       style="fill:#006f9e;stroke-width:1.01492"
       id="path121" />
    <path
       d="m 285.3,439.27 -10.3,9.88 a 6.68,6.68 0 0 1 -5.58,2.17 11.89,11.89 0 0 1 -8.69,-9 q -0.26,-2.85 2.44,-5.44 l 10.3,-9.88 q 1,-0.93 1.7,-0.16 0.7,0.77 -0.21,1.72 l -10.26,9.84 a 4.55,4.55 0 0 0 -1.59,4.1 7.44,7.44 0 0 0 2.18,4.1 7.6,7.6 0 0 0 4,2.36 4.59,4.59 0 0 0 4.2,-1.38 l 10.27,-9.87 q 1,-0.92 1.7,-0.16 c 0.54,0.53 0.48,1.11 -0.16,1.72 z"
       transform="translate(-96.81,-23.54)"
       style="fill:#006f9e;stroke-width:1.01492"
       id="path123" />
    <path
       d="m 304.14,474.53 -9.43,-8.53 -6.1,6.71 c -0.6,0.66 -1.17,0.75 -1.71,0.25 -0.54,-0.5 -0.49,-1 0.11,-1.71 l 13.25,-14.6 c 0.59,-0.64 1.14,-0.72 1.66,-0.25 0.52,0.47 0.52,1.06 -0.06,1.7 l -5.77,6.36 9.43,8.56 5.77,-6.35 c 0.58,-0.65 1.15,-0.72 1.69,-0.23 0.54,0.49 0.52,1.06 -0.06,1.7 l -13.25,14.6 c -0.6,0.66 -1.17,0.74 -1.71,0.25 -0.54,-0.49 -0.51,-1.07 0.09,-1.74 z"
       transform="translate(-96.81,-23.54)"
       style="fill:#006f9e;stroke-width:1.01492"
       id="path125" />
    <path
       d="m 323.07,492.1 -8.31,-5.29 -5.13,3.77 a 1.6,1.6 0 0 1 -0.76,0.37 1,1 0 0 1 -0.6,-0.14 1.06,1.06 0 0 1 -0.46,-0.62 1,1 0 0 1 0.09,-0.84 1.71,1.71 0 0 1 0.45,-0.45 l 17.51,-12.79 a 2.61,2.61 0 0 1 1.06,-0.58 1,1 0 0 1 0.78,0.13 1,1 0 0 1 0.5,0.81 6.18,6.18 0 0 1 -0.08,1.08 L 324,499 a 1.65,1.65 0 0 1 -0.23,0.67 1.07,1.07 0 0 1 -0.71,0.48 1.15,1.15 0 0 1 -0.83,-0.16 1.24,1.24 0 0 1 -0.44,-1.42 z m -6.52,-6.63 7,4.42 2.15,-11 z"
       transform="translate(-96.81,-23.54)"
       style="fill:#006f9e;stroke-width:1.01492"
       id="path127" />
    <path
       d="M 356.37,493.67 349.19,506 a 6.67,6.67 0 0 1 -4.77,3.62 11.89,11.89 0 0 1 -10.83,-6.31 c -0.69,-1.78 -0.4,-3.74 0.86,-5.9 l 7.18,-12.31 c 0.45,-0.77 1,-1 1.59,-0.62 0.59,0.38 0.72,0.94 0.27,1.71 l -7.18,12.31 a 4.55,4.55 0 0 0 -0.4,4.37 7.43,7.43 0 0 0 3.22,3.35 7.51,7.51 0 0 0 4.52,1.17 4.58,4.58 0 0 0 3.67,-2.47 l 7.18,-12.3 q 0.68,-1.16 1.6,-0.62 c 0.63,0.33 0.72,0.9 0.27,1.67 z"
       transform="translate(-96.81,-23.54)"
       style="fill:#006f9e;stroke-width:1.01492"
       id="path129" />
    <path
       d="m 377.29,508.65 3.94,4.34 a 6.33,6.33 0 0 1 1.74,3.5 5.48,5.48 0 0 1 -0.89,3.59 6,6 0 0 1 -4.69,2.89 q -2.77,0.25 -6.32,-2 -4.58,-3 -4.81,-6.91 a 5.47,5.47 0 0 1 0.81,-3.4 1,1 0 0 1 0.67,-0.47 1,1 0 0 1 0.8,0.15 1.29,1.29 0 0 1 0.42,1.7 5.07,5.07 0 0 0 0,3.41 5.7,5.7 0 0 0 1.26,2 13.58,13.58 0 0 0 2.24,1.78 8.26,8.26 0 0 0 4.4,1.66 4.64,4.64 0 0 0 1.94,-0.59 4,4 0 0 0 1.36,-1.29 3.33,3.33 0 0 0 0.46,-2.73 8.45,8.45 0 0 0 -1.95,-3.06 l -3.93,-4.3 q -3,-3.28 -0.88,-6.54 a 5.8,5.8 0 0 1 4.15,-2.75 q 2.69,-0.43 6.18,1.83 4.3,2.78 4.46,6.32 a 4.72,4.72 0 0 1 -0.56,2.83 1.08,1.08 0 0 1 -0.64,0.49 1,1 0 0 1 -0.85,-0.14 1.25,1.25 0 0 1 -0.45,-1.64 q 1.18,-3.41 -3.17,-6.22 a 7,7 0 0 0 -4.09,-1.38 3.65,3.65 0 0 0 -3,1.73 2.84,2.84 0 0 0 -0.35,2.63 8.91,8.91 0 0 0 1.75,2.57 z"
       transform="translate(-96.81,-23.54)"
       style="fill:#3e788f;stroke-width:1.01492"
       id="path131" />
    <path
       d="m 404.1,510.26 -5.27,18.21 q -0.36,1.25 -1.42,0.94 c -0.69,-0.19 -0.9,-0.71 -0.66,-1.55 l 5.27,-18.2 -6.79,-2 c -0.82,-0.24 -1.13,-0.68 -0.94,-1.34 0.19,-0.66 0.71,-0.9 1.52,-0.67 l 15.57,4.51 c 0.79,0.23 1.09,0.68 0.89,1.36 -0.2,0.68 -0.68,0.88 -1.47,0.65 z"
       transform="translate(-96.81,-23.54)"
       style="fill:#3e788f;stroke-width:1.01492"
       id="path133" />
    <path
       d="M 433.88,514.53 432,528.65 a 6.67,6.67 0 0 1 -3,5.17 11.88,11.88 0 0 1 -12.42,-1.68 q -2,-2.07 -1.47,-5.78 L 417,512.23 c 0.12,-0.88 0.53,-1.28 1.24,-1.19 0.71,0.09 1,0.59 0.91,1.48 l -1.92,14.12 a 4.54,4.54 0 0 0 1.31,4.2 7.4,7.4 0 0 0 4.25,1.86 7.58,7.58 0 0 0 4.63,-0.65 4.61,4.61 0 0 0 2.44,-3.69 l 1.91,-14.12 c 0.12,-0.89 0.54,-1.28 1.24,-1.19 0.7,0.09 0.99,0.59 0.87,1.48 z"
       transform="translate(-96.81,-23.54)"
       style="fill:#3e788f;stroke-width:1.01492"
       id="path135" />
    <path
       d="m 443.15,533.85 v -18.27 a 1.73,1.73 0 0 1 2,-2 h 6.59 a 8.1,8.1 0 0 1 6.32,2.57 q 2.71,3 2.71,8.62 0,5.62 -2.71,8.59 a 8.19,8.19 0 0 1 -6.32,2.58 h -6.59 a 2.2,2.2 0 0 1 -1.54,-0.48 2.28,2.28 0 0 1 -0.46,-1.61 z m 3.16,0 h 5.09 a 6.41,6.41 0 0 0 5.35,-2.4 q 1.75,-2.3 1.75,-6.66 0,-4.36 -1.75,-6.79 a 6.45,6.45 0 0 0 -5.35,-2.37 h -5.09 a 0.91,0.91 0 0 0 -1,1 v 16.1 a 0.91,0.91 0 0 0 1,1.08 z"
       transform="translate(-96.81,-23.54)"
       style="fill:#3e788f;stroke-width:1.01492"
       id="path137" />
    <path
       d="m 473.09,524.23 0.63,7.29 a 0.9,0.9 0 0 0 1.11,0.91 l 11.39,-1 c 0.82,-0.07 1.26,0.25 1.32,1 0.06,0.75 -0.33,1.06 -1.15,1.13 l -12.55,1.09 a 1.71,1.71 0 0 1 -2.19,-1.85 l -1.58,-18.2 a 2.1,2.1 0 0 1 0.34,-1.58 2,2 0 0 1 1.5,-0.65 l 12,-1 c 0.84,-0.08 1.29,0.24 1.36,0.95 0.07,0.71 -0.34,1.06 -1.18,1.14 l -10.84,0.93 a 0.91,0.91 0 0 0 -0.94,1.12 l 0.58,6.74 11.39,-1 c 0.84,-0.08 1.29,0.23 1.35,0.91 0.06,0.68 -0.33,1.06 -1.18,1.13 z"
       transform="translate(-96.81,-23.54)"
       style="fill:#3e788f;stroke-width:1.01492"
       id="path139" />
    <path
       d="m 495.87,512 4.95,16.84 c 0.25,0.85 0,1.39 -0.68,1.59 -0.68,0.2 -1.15,-0.13 -1.4,-1 l -5.55,-18.91 q -0.39,-1.35 0.79,-1.7 c 0.51,-0.15 1.2,0.13 2.07,0.83 l 16.69,13.57 -5,-16.94 c -0.25,-0.86 0,-1.39 0.68,-1.59 0.68,-0.2 1.18,0.12 1.43,1 l 5.54,18.88 q 0.4,1.39 -0.85,1.75 a 1.17,1.17 0 0 1 -0.75,0 5,5 0 0 1 -1.35,-0.82 z"
       transform="translate(-96.81,-23.54)"
       style="fill:#3e788f;stroke-width:1.01492"
       id="path141" />
    <path
       d="m 589.14,462.47 10.73,9.38 a 6.67,6.67 0 0 1 2.65,5.37 11.88,11.88 0 0 1 -8.25,9.44 q -2.81,0.51 -5.63,-2 l -10.73,-9.38 q -1,-0.88 -0.31,-1.68 c 0.48,-0.55 1.06,-0.53 1.73,0.06 l 10.73,9.38 a 4.54,4.54 0 0 0 4.22,1.23 7.45,7.45 0 0 0 3.9,-2.52 7.57,7.57 0 0 0 2,-4.23 4.6,4.6 0 0 0 -1.73,-4.07 l -10.73,-9.38 c -0.67,-0.59 -0.78,-1.15 -0.31,-1.69 0.47,-0.54 1.06,-0.49 1.73,0.09 z"
       transform="translate(-96.81,-23.54)"
       style="fill:#006f9e;stroke-width:1.01492"
       id="path143" />
    <path
       d="m 601.3,456.74 13.92,10.68 c 0.71,0.54 0.84,1.11 0.4,1.69 -0.44,0.58 -1,0.57 -1.71,0 l -15.64,-12 q -1.12,-0.85 -0.36,-1.83 c 0.32,-0.42 1,-0.6 2.16,-0.55 l 21.47,1.11 -14,-10.74 c -0.71,-0.54 -0.84,-1.11 -0.39,-1.68 0.45,-0.57 1,-0.61 1.73,-0.06 l 15.61,12 a 1.32,1.32 0 0 1 -0.25,2.36 5.13,5.13 0 0 1 -1.57,0.13 z"
       transform="translate(-96.81,-23.54)"
       style="fill:#006f9e;stroke-width:1.01492"
       id="path145" />
    <path
       d="m 617.6,433 16.4,11.47 q 1.1,0.77 0.47,1.67 c -0.42,0.6 -1,0.65 -1.73,0.13 l -16.38,-11.44 c -0.73,-0.51 -0.88,-1.07 -0.47,-1.67 0.41,-0.6 0.98,-0.64 1.71,-0.16 z"
       transform="translate(-96.81,-23.54)"
       style="fill:#006f9e;stroke-width:1.01492"
       id="path147" />
    <path
       d="m 626.41,418.67 a 10.21,10.21 0 0 1 5.19,-5.1 9.92,9.92 0 0 1 5.08,-0.73 14.33,14.33 0 0 1 4.82,1.41 q 5.6,2.78 6.82,7.65 a 10.18,10.18 0 0 1 -0.93,7.25 9.93,9.93 0 0 1 -5.18,5 10.07,10.07 0 0 1 -5.08,0.65 13.55,13.55 0 0 1 -5,-1.42 13,13 0 0 1 -5.43,-4.74 9.63,9.63 0 0 1 -0.29,-9.97 z m 1.82,0.9 a 7.9,7.9 0 0 0 -0.52,6.26 8.07,8.07 0 0 0 1.93,3.07 12.49,12.49 0 0 0 3.49,2.55 11.47,11.47 0 0 0 5.56,1.31 7.57,7.57 0 0 0 4.54,-1.65 8.59,8.59 0 0 0 2.33,-2.9 7.74,7.74 0 0 0 0.51,-6.26 8,8 0 0 0 -2,-3.08 12.16,12.16 0 0 0 -3.37,-2.48 q -4.3,-2.15 -7.83,-1 a 7.75,7.75 0 0 0 -4.64,4.18 z"
       transform="translate(-96.81,-23.54)"
       style="fill:#006f9e;stroke-width:1.01492"
       id="path149" />
    <path
       d="m 638.74,403.19 15.43,8.36 c 0.79,0.43 1,1 0.66,1.61 -0.34,0.61 -0.9,0.72 -1.69,0.3 l -17.33,-9.39 c -0.82,-0.45 -1,-1 -0.65,-1.76 q 0.38,-0.69 2,-0.88 l 21.38,-2.28 -15.51,-8.41 c -0.79,-0.42 -1,-1 -0.66,-1.6 0.34,-0.6 0.91,-0.75 1.7,-0.33 l 17.3,9.37 q 1.26,0.69 0.64,1.83 a 1.17,1.17 0 0 1 -0.52,0.54 5.2,5.2 0 0 1 -1.53,0.38 z"
       transform="translate(-96.81,-23.54)"
       style="fill:#006f9e;stroke-width:1.01492"
       id="path151" />
    <path
       d="m 547.53,497.67 5.48,-2.1 a 6.36,6.36 0 0 1 3.89,-0.35 5.48,5.48 0 0 1 3,2.14 6,6 0 0 1 1,5.43 q -0.78,2.68 -4.2,5.15 -4.43,3.2 -8.19,2 a 5.45,5.45 0 0 1 -2.88,-2 1,1 0 0 1 -0.19,-0.79 0.94,0.94 0 0 1 0.43,-0.69 1.28,1.28 0 0 1 1.73,0.23 5.07,5.07 0 0 0 3.16,1.28 5.71,5.71 0 0 0 2.36,-0.43 13.91,13.91 0 0 0 2.47,-1.44 8.31,8.31 0 0 0 3.15,-3.5 4.61,4.61 0 0 0 0.15,-2 3.88,3.88 0 0 0 -0.71,-1.74 3.32,3.32 0 0 0 -2.38,-1.41 8.48,8.48 0 0 0 -3.56,0.7 l -5.43,2.09 q -4.15,1.59 -6.42,-1.55 a 5.81,5.81 0 0 1 -1.06,-4.87 q 0.58,-2.66 3.95,-5.09 4.15,-3 7.51,-1.86 a 4.75,4.75 0 0 1 2.43,1.55 1.09,1.09 0 0 1 0.22,0.77 1,1 0 0 1 -0.44,0.75 1.27,1.27 0 0 1 -1.7,-0.17 q -2.74,-2.34 -6.95,0.69 a 7,7 0 0 0 -2.78,3.31 3.67,3.67 0 0 0 0.53,3.38 2.86,2.86 0 0 0 2.33,1.29 8.9,8.9 0 0 0 3.1,-0.77 z"
       transform="translate(-96.81,-23.54)"
       style="fill:#3e788f;stroke-width:1.01492"
       id="path153" />
    <path
       d="m 527.53,501.52 6.9,17.65 c 0.32,0.81 0.13,1.35 -0.55,1.61 -0.68,0.26 -1.15,0 -1.47,-0.83 l -6.9,-17.65 -6.59,2.57 c -0.79,0.31 -1.31,0.15 -1.56,-0.5 -0.25,-0.65 0,-1.14 0.79,-1.45 l 15.09,-5.9 q 1.16,-0.45 1.54,0.54 c 0.25,0.64 0,1.11 -0.78,1.41 z"
       transform="translate(-96.81,-23.54)"
       style="fill:#3e788f;stroke-width:1.01492"
       id="path155" />
    <path
       d="m 321.19,110.59 -16.76,11.63 a 1.07,1.07 0 0 0 -0.28,1.69 l 1.38,2 a 0.55,0.55 0 0 1 0.07,0.56 0.64,0.64 0 0 1 -0.23,0.36 0.68,0.68 0 0 1 -0.92,-0.17 l -1.51,-2.18 a 2.2,2.2 0 0 1 -0.51,-1.66 2.32,2.32 0 0 1 1.09,-1.4 L 321.32,109 q 1.91,-1.32 2.87,0.07 a 9.1,9.1 0 0 1 1.07,2.36 4.39,4.39 0 0 1 0.25,1 0.51,0.51 0 0 1 -0.25,0.43 c -0.4,0.28 -0.7,0.27 -0.9,0 a 2.54,2.54 0 0 1 -0.23,-0.45 7.1,7.1 0 0 0 -0.89,-2.28 0.76,0.76 0 0 0 -0.48,-0.35 c -0.22,-0.02 -0.76,0.22 -1.57,0.81 z m -6.89,9.82 7.62,-5.28 a 2.64,2.64 0 0 1 2.21,-0.65 3.84,3.84 0 0 1 1.71,1.59 13.06,13.06 0 0 1 2.3,4.77 q 0.38,2.11 -2.34,4 a 16.08,16.08 0 0 1 -2.56,1.42 5.64,5.64 0 0 1 -2,0.65 0.75,0.75 0 0 1 -0.55,-0.27 c -0.23,-0.33 -0.14,-0.62 0.26,-0.9 a 10,10 0 0 1 1.34,-0.57 14.19,14.19 0 0 0 3.06,-1.56 q 1.55,-1.08 1.42,-2.31 a 7.6,7.6 0 0 0 -0.89,-2.68 13.12,13.12 0 0 0 -0.82,-1.36 3,3 0 0 0 -1.21,-1.17 q -0.66,-0.31 -1.69,0.41 l -7.24,5 a 10.63,10.63 0 0 1 1,4.49 11.37,11.37 0 0 1 -1.82,5.86 q -0.62,1 -1.53,2.27 a 6.14,6.14 0 0 1 -1.06,1.09 0.56,0.56 0 0 1 -0.87,-0.16 0.57,0.57 0 0 1 0,-0.6 7.35,7.35 0 0 1 0.91,-1.24 12.72,12.72 0 0 0 3,-6.3 9.46,9.46 0 0 0 -0.8,-4.64 l -6.15,4.27 c -0.42,0.29 -0.74,0.27 -1,-0.06 -0.26,-0.33 -0.15,-0.66 0.27,-0.95 l 6.34,-4.4 -0.19,-0.39 a 8.16,8.16 0 0 1 -0.75,-1.66 0.63,0.63 0 0 1 0.29,-0.4 0.6,0.6 0 0 1 0.94,0.19 10.71,10.71 0 0 1 0.67,1.31 z m -10.14,-6.54 h 0.69 a 27.46,27.46 0 0 1 2.94,0.06 13.4,13.4 0 0 1 2,0.14 1.07,1.07 0 0 1 0.67,0.38 0.55,0.55 0 0 1 -0.16,0.87 1.72,1.72 0 0 1 -1.18,0.1 33.31,33.31 0 0 0 -4.71,-0.4 8.57,8.57 0 0 1 -0.42,3.11 10.26,10.26 0 0 1 -1.18,2.59 2.56,2.56 0 0 1 -0.56,0.75 0.54,0.54 0 0 1 -0.85,-0.18 c -0.19,-0.27 -0.1,-0.7 0.28,-1.28 a 8.36,8.36 0 0 0 1.18,-2.71 5.64,5.64 0 0 0 -0.38,-4.09 20.7,20.7 0 0 0 -1.53,-2.73 q -0.56,-0.86 0,-1.24 0.56,-0.38 1.11,0.44 a 19.32,19.32 0 0 1 1.69,3 6.64,6.64 0 0 1 0.4,1.18 z m -5.38,-1.31 a 0.53,0.53 0 0 1 0.83,0.15 7.16,7.16 0 0 1 0.7,2.46 q 0.41,2.09 -0.22,2.53 a 0.53,0.53 0 0 1 -0.51,0.07 0.54,0.54 0 0 1 -0.27,-0.21 3.71,3.71 0 0 1 -0.14,-1 11.7,11.7 0 0 0 -0.5,-2.87 c -0.17,-0.58 -0.13,-0.97 0.11,-1.13 z m 6.74,-4.75 a 0.56,0.56 0 0 1 0.37,-0.1 0.53,0.53 0 0 1 0.47,0.27 9,9 0 0 1 0.51,2.95 c 0,1 -0.08,1.59 -0.37,1.79 a 0.52,0.52 0 0 1 -0.47,0.08 0.58,0.58 0 0 1 -0.34,-0.2 2,2 0 0 1 -0.11,-1 16.62,16.62 0 0 0 -0.24,-2.9 c -0.1,-0.44 -0.05,-0.7 0.17,-0.89 z m 8.7,-1 h 0.19 0.14 q 2.67,-0.16 4.06,-0.19 a 14.21,14.21 0 0 1 2.18,0.06 1.12,1.12 0 0 1 0.76,0.4 0.56,0.56 0 0 1 -0.16,0.88 1.84,1.84 0 0 1 -1.1,0.16 45.32,45.32 0 0 0 -5.77,-0.19 8.23,8.23 0 0 1 -0.42,3.28 10.81,10.81 0 0 1 -1.2,2.57 2.62,2.62 0 0 1 -0.54,0.74 0.56,0.56 0 0 1 -0.87,-0.2 q -0.27,-0.38 0.27,-1.24 a 9.42,9.42 0 0 0 1.18,-2.71 5.45,5.45 0 0 0 -0.38,-4.09 18.07,18.07 0 0 0 -1.5,-2.75 q -0.58,-0.84 0,-1.22 c 0.36,-0.25 0.73,-0.1 1.11,0.44 a 19.71,19.71 0 0 1 1.71,3 4.59,4.59 0 0 1 0.33,1.06 z m -5.33,-1.18 a 0.51,0.51 0 0 1 0.81,0.12 7.07,7.07 0 0 1 0.72,2.44 q 0.38,2.11 -0.24,2.55 a 0.6,0.6 0 0 1 -0.51,0.07 0.55,0.55 0 0 1 -0.27,-0.21 3.64,3.64 0 0 1 -0.13,-1 11.68,11.68 0 0 0 -0.49,-2.85 q -0.25,-0.87 0.1,-1.12 z m 6.74,-4.75 a 0.72,0.72 0 0 1 0.36,-0.13 0.56,0.56 0 0 1 0.49,0.3 8,8 0 0 1 0.52,2.95 q 0.09,1.47 -0.37,1.79 a 0.54,0.54 0 0 1 -0.47,0.08 0.59,0.59 0 0 1 -0.32,-0.18 2.21,2.21 0 0 1 -0.13,-1 15.57,15.57 0 0 0 -0.22,-2.87 q -0.2,-0.72 0.13,-0.94 z"
       transform="translate(-96.81,-23.54)"
       style="fill:#3e788f;stroke-width:1.01492"
       id="path157" />
    <path
       d="m 345.54,90.14 c 0.35,0.3 0.67,0.56 1,0.77 q 5.5,4.45 6.05,5.69 0.25,0.58 -0.26,0.8 c -0.35,0.15 -0.73,0 -1.16,-0.5 q -2.26,-2.51 -4.8,-4.83 l 6.94,15.79 a 0.9,0.9 0 0 1 0,0.64 0.61,0.61 0 0 1 -0.33,0.33 0.62,0.62 0 0 1 -0.42,0 0.8,0.8 0 0 1 -0.49,-0.47 L 345.5,93.42 a 56.39,56.39 0 0 1 0.48,8.07 6.84,6.84 0 0 1 -0.15,1.73 0.74,0.74 0 0 1 -0.39,0.43 0.54,0.54 0 0 1 -0.8,-0.34 2.81,2.81 0 0 1 -0.11,-1.07 51.78,51.78 0 0 0 -0.61,-11.42 l -3,1.32 q -0.73,0.32 -1,-0.23 -0.27,-0.55 0.48,-0.89 l 3.36,-1.48 -2.2,-5 a 0.76,0.76 0 0 1 0,-0.74 0.44,0.44 0 0 1 0.25,-0.25 0.5,0.5 0 0 1 0.49,0 0.69,0.69 0 0 1 0.44,0.42 l 2.2,5 3.09,-1.36 c 0.41,-0.18 0.69,-0.08 0.85,0.28 a 0.57,0.57 0 0 1 -0.35,0.84 z m 17.72,7.22 a 21.75,21.75 0 0 1 -2.12,4.73 23.63,23.63 0 0 1 -2.28,3.35 4.17,4.17 0 0 1 -1.28,1.21 0.51,0.51 0 0 1 -0.76,-0.32 c -0.11,-0.24 0,-0.55 0.31,-0.93 a 25.14,25.14 0 0 0 3.61,-5.35 25.49,25.49 0 0 0 1.26,-3.24 26.57,26.57 0 0 1 -4.15,-2.62 11.75,11.75 0 0 1 -2.87,-2.65 0.51,0.51 0 0 1 0.28,-0.77 0.58,0.58 0 0 1 0.53,0.06 12.74,12.74 0 0 1 1.58,1.3 24.42,24.42 0 0 0 5,3.39 24.49,24.49 0 0 0 0.5,-7.67 c 0,-0.43 0.06,-0.72 0.35,-0.84 a 0.54,0.54 0 0 1 0.8,0.33 11.9,11.9 0 0 1 0.24,4.42 25.12,25.12 0 0 1 -0.63,4.15 v 0.18 a 27.33,27.33 0 0 0 3,1.11 q 1,0.3 3.56,0.86 c 1.06,0.21 1.74,0.33 2,0.37 0.63,0 1,0.15 1.12,0.41 A 0.57,0.57 0 0 1 373,99.7 q -0.73,0.32 -5.33,-0.84 a 33.73,33.73 0 0 1 -4.41,-1.5 z m -8.58,-12.94 a 0.52,0.52 0 0 1 0.77,0.28 4.25,4.25 0 0 1 0,1.81 24.26,24.26 0 0 1 -1.78,6.24 c -0.45,1.11 -0.87,1.75 -1.25,1.92 a 0.48,0.48 0 0 1 -0.37,0 0.53,0.53 0 0 1 -0.4,-0.33 q -0.16,-0.36 0.31,-1.26 a 18.71,18.71 0 0 0 1.49,-3.69 28.89,28.89 0 0 0 0.76,-3.95 c 0.09,-0.58 0.25,-0.91 0.47,-1.01 z m 0.95,-2.62 a 17.09,17.09 0 0 0 -2,-1.94 1.58,1.58 0 0 1 -0.49,-0.54 0.54,0.54 0 0 1 0.33,-0.8 c 0.28,-0.12 0.66,0 1.14,0.37 a 13,13 0 0 1 2.39,2.32 l 6.12,-2.7 c 0.41,-0.18 0.68,-0.08 0.84,0.28 0.16,0.36 0,0.63 -0.36,0.81 l -14,6.14 c -0.47,0.2 -0.78,0.13 -0.94,-0.24 -0.16,-0.37 0,-0.65 0.46,-0.85 z m 3.52,0.51 q 0.73,-0.32 4.91,2 3.93,2.18 4.18,2.75 a 0.55,0.55 0 0 1 0,0.46 0.62,0.62 0 0 1 -0.32,0.34 q -0.39,0.18 -1,-0.29 a 36.77,36.77 0 0 0 -7.61,-4.14 0.87,0.87 0 0 1 -0.47,-0.41 0.57,0.57 0 0 1 0,-0.4 0.62,0.62 0 0 1 0.3,-0.3 z"
       transform="translate(-96.81,-23.54)"
       style="fill:#3e788f;stroke-width:1.01492"
       id="path159" />
    <path
       d="m 404.09,80.92 -8.15,1.77 a 5,5 0 0 1 -1.36,0.16 2.11,2.11 0 0 1 -1.42,-0.94 3.8,3.8 0 0 1 -0.44,-1.26 l -1.9,-8.77 a 4,4 0 0 1 -0.12,-1.36 2,2 0 0 1 0.91,-1.42 4.09,4.09 0 0 1 1.29,-0.45 l 8.1,-1.77 -0.87,-4 c -0.11,-0.52 0,-0.82 0.45,-0.91 0.45,-0.09 0.7,0.12 0.81,0.64 l 0.87,4 8.48,-1.84 a 3.89,3.89 0 0 1 1.33,-0.12 2,2 0 0 1 1.41,0.91 3.94,3.94 0 0 1 0.45,1.29 l 1.9,8.77 a 3.85,3.85 0 0 1 0.12,1.33 2.09,2.09 0 0 1 -0.9,1.45 4.7,4.7 0 0 1 -1.27,0.41 L 405.3,80.65 407,88 q 0.16,0.74 -0.45,0.88 c -0.43,0.09 -0.7,-0.11 -0.81,-0.6 z M 403.84,79.76 401.3,68 l -8.09,1.75 a 1.32,1.32 0 0 0 -1.14,1.77 L 394,80.4 a 1.3,1.3 0 0 0 1.77,1.11 z m 1.26,-0.27 8.41,-1.82 a 1.28,1.28 0 0 0 1.08,-1.73 l -1.92,-8.83 A 1.29,1.29 0 0 0 411,65.95 l -8.41,1.82 z"
       transform="translate(-96.81,-23.54)"
       style="fill:#3e788f;stroke-width:1.01492"
       id="path161" />
    <path
       d="m 453.43,77.61 h 11.62 c 0.44,0 0.66,0.21 0.66,0.63 0,0.42 -0.22,0.6 -0.66,0.6 h -10.12 a 3.17,3.17 0 0 1 0.89,2.15 3.22,3.22 0 0 1 -0.89,2.25 q -1.23,1.36 -4.24,1.36 a 11.86,11.86 0 0 1 -4,-0.63 q -1.66,-0.6 -1.66,-1.23 a 0.69,0.69 0 0 1 0.2,-0.43 0.57,0.57 0 0 1 0.43,-0.16 2,2 0 0 1 0.66,0.2 9.68,9.68 0 0 0 1.75,0.66 10.52,10.52 0 0 0 2.65,0.3 5.54,5.54 0 0 0 2.88,-0.73 1.67,1.67 0 0 0 0.82,-1.42 c 0,-0.73 -0.53,-1.5 -1.59,-2.32 h -13.9 c -0.48,0 -0.73,-0.2 -0.73,-0.6 0,-0.4 0.24,-0.63 0.73,-0.63 h 11.92 a 0.13,0.13 0 0 1 -0.1,0 c -0.53,-0.31 -0.79,-0.63 -0.79,-1 0,-0.37 0.21,-0.51 0.63,-0.73 a 7.64,7.64 0 0 1 1.59,-0.6 q 1.22,-0.36 3.21,-1 l 1.26,-0.43 a 2.86,2.86 0 0 0 0.93,-0.43 v -0.1 c 0,0 -0.11,0 -0.33,0 H 444.56 A 0.71,0.71 0 0 1 444,73 0.58,0.58 0 0 1 443.87,72.64 c 0,-0.39 0.23,-0.59 0.69,-0.59 h 12.94 a 3,3 0 0 1 1.33,0.2 0.87,0.87 0 0 1 0.4,0.83 q 0,0.8 -1.12,1.32 -1.12,0.52 -3.74,1.46 a 18.09,18.09 0 0 0 -2,0.76 0.41,0.41 0 0 0 -0.1,0.23 c 0,0.06 0.14,0.17 0.4,0.29 0.26,0.12 0.41,0.25 0.76,0.47 z m 8,-8.51 0.13,-2.39 h -4 c -0.48,0 -0.73,-0.2 -0.73,-0.6 0,-0.4 0.24,-0.6 0.73,-0.6 h 4 l 0.17,-2.45 h -4.24 c -0.49,0 -0.73,-0.2 -0.73,-0.6 0,-0.4 0.24,-0.6 0.73,-0.6 h 4.3 l 0.07,-1.26 v -0.1 a 1.14,1.14 0 0 0 -0.3,-0.79 0.88,0.88 0 0 0 -0.7,-0.3 h -3.57 c -0.49,0 -0.73,-0.21 -0.73,-0.63 0,-0.42 0.24,-0.56 0.73,-0.56 h 3.81 a 2,2 0 0 1 1.49,0.53 2.09,2.09 0 0 1 0.6,1.49 v 0.13 l -0.47,8.71 h 0.89 c 1.11,0 1.65,0.47 1.65,1.42 a 11.45,11.45 0 0 1 -0.3,2 c -0.26,1.21 -0.63,1.82 -1.09,1.82 -0.46,0 -0.63,-0.23 -0.63,-0.7 a 2.49,2.49 0 0 1 0.23,-0.79 6.3,6.3 0 0 0 0.4,-1.79 c 0,-0.49 -0.26,-0.73 -0.76,-0.73 h -21.43 a 1.3,1.3 0 0 0 -1.49,1.46 v 1.52 c 0,0.55 -0.22,0.83 -0.66,0.83 -0.44,0 -0.66,-0.28 -0.66,-0.83 v -1.47 a 4,4 0 0 1 0.17,-1.36 2.17,2.17 0 0 1 2.25,-1.36 L 441,59.83 a 1.35,1.35 0 0 1 0.4,-1.19 9.67,9.67 0 0 1 2.45,-0.6 20.63,20.63 0 0 0 2.05,-0.53 1.18,1.18 0 0 1 0.43,-0.07 c 0.46,0 0.7,0.21 0.7,0.63 a 0.77,0.77 0 0 1 -0.46,0.66 9.5,9.5 0 0 1 -2.52,0.66 6.92,6.92 0 0 0 -1.5,0.4 0.45,0.45 0 0 0 -0.25,0.53 v 0.1 l 0.07,1.46 h 4 c 0.46,0 0.7,0.2 0.7,0.6 0,0.4 -0.23,0.6 -0.7,0.6 h -3.94 l 0.1,2.45 h 3.87 q 0.7,0 0.7,0.6 c 0,0.4 -0.23,0.6 -0.7,0.6 h -3.81 l 0.07,2.39 z M 452.34,65 q 0.62,-0.53 1.49,-1.36 a 1.16,1.16 0 0 1 0.73,-0.46 0.55,0.55 0 0 1 0.5,0.27 0.53,0.53 0 0 1 0.13,0.33 q 0,0.5 -1.49,1.72 l -0.29,0.23 q 0.92,0.7 1.46,1.19 c 0.42,0.37 0.63,0.69 0.63,0.93 a 0.53,0.53 0 0 1 -0.6,0.6 1.19,1.19 0 0 1 -0.7,-0.4 q -1.26,-1 -1.85,-1.46 c -1.94,1.37 -3.21,2.05 -3.78,2.05 A 0.53,0.53 0 0 1 448,68 q 0,-0.43 0.83,-0.79 a 22.28,22.28 0 0 0 2.45,-1.46 21.75,21.75 0 0 0 -2,-1.22 c -0.33,-0.18 -0.5,-0.37 -0.5,-0.6 a 0.53,0.53 0 0 1 0.6,-0.6 q 0.68,0.04 2.96,1.67 z m -0.2,-5.76 a 20.48,20.48 0 0 0 1.69,-1.69 1.14,1.14 0 0 1 0.76,-0.5 0.57,0.57 0 0 1 0.36,0.13 0.67,0.67 0 0 1 0.27,0.5 q 0,0.57 -2,2.32 2,1.36 2.05,2 c 0,0.38 -0.16,0.56 -0.49,0.56 a 2.24,2.24 0 0 1 -1.13,-0.63 q -0.46,-0.4 -1.46,-1.09 Q 449.3,63 448.64,63 a 0.53,0.53 0 0 1 -0.6,-0.6 c 0,-0.29 0.25,-0.56 0.76,-0.83 a 19.31,19.31 0 0 0 2.25,-1.49 l -2,-1 c -0.35,-0.2 -0.53,-0.43 -0.53,-0.7 a 0.61,0.61 0 0 1 0.13,-0.39 0.59,0.59 0 0 1 0.46,-0.23 11.55,11.55 0 0 1 3.03,1.48 z"
       transform="translate(-96.81,-23.54)"
       style="fill:#3e788f;stroke-width:1.01492"
       id="path163" />
    <path
       d="M 500.26,82.75 511.43,86 a 0.57,0.57 0 0 1 0.46,0.79 q -0.16,0.57 -0.8,0.39 l -9.73,-2.81 a 3.17,3.17 0 0 1 -1.22,4.23 q -1.56,1 -4.45,0.13 A 11.94,11.94 0 0 1 492,87 q -1.42,-1 -1.25,-1.64 a 0.69,0.69 0 0 1 0.31,-0.36 0.58,0.58 0 0 1 0.46,0 2,2 0 0 1 0.58,0.38 9.71,9.71 0 0 0 1.5,1.12 10.5,10.5 0 0 0 2.47,1 5.51,5.51 0 0 0 3,0.1 1.66,1.66 0 0 0 1.19,-1.14 3.25,3.25 0 0 0 -0.88,-2.67 L 486,79.91 c -0.47,-0.13 -0.64,-0.39 -0.53,-0.77 0.11,-0.38 0.41,-0.54 0.88,-0.41 L 497.78,82 a 0.13,0.13 0 0 1 -0.08,-0.06 c -0.43,-0.44 -0.59,-0.82 -0.5,-1.14 0.09,-0.32 0.34,-0.43 0.81,-0.53 a 7.65,7.65 0 0 1 1.69,-0.13 c 0.85,0 2,0 3.37,-0.1 L 504.4,80 a 2.82,2.82 0 0 0 1,-0.16 v -0.06 0 c 0,0 -0.1,-0.07 -0.31,-0.13 l -12.18,-3.51 a 0.71,0.71 0 0 1 -0.47,-0.41 0.57,0.57 0 0 1 0,-0.39 c 0.11,-0.38 0.39,-0.51 0.84,-0.38 l 12.44,3.59 a 3,3 0 0 1 1.22,0.56 0.88,0.88 0 0 1 0.15,0.91 c -0.15,0.51 -0.63,0.83 -1.45,1 -0.82,0.17 -2.15,0.25 -4,0.36 a 17.53,17.53 0 0 0 -2.15,0.17 0.39,0.39 0 0 0 -0.16,0.19 c 0,0.06 0.08,0.2 0.3,0.39 0.22,0.19 0.37,0.31 0.63,0.62 z m 10,-6 0.79,-2.25 -3.85,-1.11 c -0.47,-0.13 -0.65,-0.39 -0.54,-0.77 0.11,-0.38 0.4,-0.51 0.86,-0.37 l 3.89,1.12 0.83,-2.31 -4.07,-1.18 c -0.46,-0.13 -0.64,-0.39 -0.54,-0.77 0.1,-0.38 0.4,-0.51 0.87,-0.37 l 4.17,1.26 0.41,-1.19 v -0.09 a 1.16,1.16 0 0 0 -0.06,-0.85 0.9,0.9 0 0 0 -0.59,-0.48 l -3.43,-1 c -0.47,-0.13 -0.64,-0.4 -0.53,-0.8 0.11,-0.4 0.39,-0.48 0.86,-0.34 l 3.67,1.02 a 2,2 0 0 1 1.28,0.92 2.06,2.06 0 0 1 0.16,1.6 l -0.06,0.12 -2.86,8.24 0.86,0.25 q 1.58,0.46 1.2,1.83 a 11.54,11.54 0 0 1 -0.84,1.83 c -0.59,1.09 -1.11,1.57 -1.55,1.45 -0.44,-0.12 -0.54,-0.4 -0.41,-0.84 a 2.46,2.46 0 0 1 0.44,-0.7 6.07,6.07 0 0 0 0.87,-1.61 0.66,0.66 0 0 0 -0.52,-0.91 L 491,72.5 a 1.3,1.3 0 0 0 -1.83,1 l -0.42,1.46 c -0.15,0.53 -0.44,0.73 -0.87,0.61 -0.43,-0.12 -0.56,-0.45 -0.41,-1 l 0.42,-1.43 a 4,4 0 0 1 0.53,-1.26 2.18,2.18 0 0 1 2.54,-0.68 l 2.25,-9 a 1.35,1.35 0 0 1 0.71,-1 9.77,9.77 0 0 1 2.52,0.11 20,20 0 0 0 2.12,0.06 1.21,1.21 0 0 1 0.43,0.05 c 0.45,0.13 0.61,0.4 0.5,0.8 a 0.78,0.78 0 0 1 -0.63,0.51 9.42,9.42 0 0 1 -2.6,-0.06 7.16,7.16 0 0 0 -1.55,0 0.45,0.45 0 0 0 -0.39,0.44 v 0.1 l -0.34,1.42 3.81,1.1 c 0.45,0.13 0.62,0.39 0.5,0.77 -0.12,0.38 -0.38,0.51 -0.83,0.38 l -3.78,-1.09 -0.59,2.38 3.73,1.07 c 0.44,0.13 0.61,0.38 0.5,0.77 -0.11,0.39 -0.39,0.51 -0.83,0.38 l -3.66,-1.05 -0.6,2.31 z m -7.58,-6.46 c 0.5,-0.23 1.1,-0.52 1.8,-0.89 a 1.16,1.16 0 0 1 0.83,-0.24 0.67,0.67 0 0 1 0.44,0.75 c -0.09,0.32 -0.72,0.73 -1.91,1.24 l -0.35,0.14 a 18.08,18.08 0 0 1 1.07,1.55 1.54,1.54 0 0 1 0.35,1.06 0.53,0.53 0 0 1 -0.74,0.41 q -0.25,-0.07 -0.56,-0.57 c -0.62,-0.89 -1.08,-1.53 -1.38,-1.91 q -3.36,1.16 -4.2,0.93 a 0.53,0.53 0 0 1 -0.41,-0.74 c 0.08,-0.27 0.42,-0.45 1,-0.53 a 23.4,23.4 0 0 0 2.75,-0.72 21.58,21.58 0 0 0 -1.6,-1.74 c -0.27,-0.26 -0.37,-0.5 -0.31,-0.71 a 0.53,0.53 0 0 1 0.74,-0.41 q 0.8,0.23 2.51,2.42 z m 1.41,-5.59 a 21.92,21.92 0 0 0 2.09,-1.15 1.13,1.13 0 0 1 0.87,-0.27 0.57,0.57 0 0 1 0.32,0.23 0.66,0.66 0 0 1 0.12,0.55 q -0.16,0.54 -2.52,1.68 1.6,1.87 1.42,2.48 c -0.1,0.36 -0.32,0.49 -0.63,0.4 -0.31,-0.09 -0.53,-0.37 -0.91,-0.92 -0.23,-0.34 -0.59,-0.82 -1.1,-1.45 -2.29,0.86 -3.65,1.22 -4.07,1.1 a 0.53,0.53 0 0 1 -0.41,-0.74 q 0.12,-0.41 1,-0.58 a 18.92,18.92 0 0 0 2.58,-0.81 q -0.33,-0.3 -1.59,-1.53 a 0.83,0.83 0 0 1 -0.32,-0.81 0.64,0.64 0 0 1 0.24,-0.35 0.59,0.59 0 0 1 0.51,-0.1 11.62,11.62 0 0 1 2.43,2.31 z"
       transform="translate(-96.81,-23.54)"
       style="fill:#3e788f;stroke-width:1.01492"
       id="path165" />
    <path
       d="m 550.27,86.37 3,-5.46 c 0.25,-0.47 0.57,-0.59 1,-0.38 0.43,0.21 0.45,0.55 0.2,1 l -3,5.46 9.35,5.11 c 0.39,0.21 0.49,0.49 0.3,0.84 a 0.57,0.57 0 0 1 -0.88,0.24 l -9.36,-5.11 -3.43,6.28 8.16,4.46 c 0.41,0.22 0.51,0.51 0.32,0.86 -0.19,0.35 -0.49,0.41 -0.89,0.19 l -8.17,-4.46 -4,7.41 10.34,5.65 c 0.41,0.22 0.52,0.51 0.33,0.86 -0.19,0.35 -0.49,0.41 -0.89,0.19 L 530.11,97.24 q -0.64,-0.35 -0.35,-0.87 c 0.19,-0.35 0.5,-0.41 0.92,-0.17 l 11,6 4,-7.41 -8.19,-4.48 c -0.43,-0.23 -0.55,-0.52 -0.36,-0.87 0.19,-0.35 0.5,-0.41 0.93,-0.17 l 8.19,4.48 3.43,-6.28 -7.26,-4 a 22.82,22.82 0 0 1 -3.29,2 25.48,25.48 0 0 1 -2.32,1.14 1.07,1.07 0 0 1 -0.86,0.06 0.51,0.51 0 0 1 -0.21,-0.79 5.52,5.52 0 0 1 1.82,-1 31.93,31.93 0 0 0 8.51,-6.33 4.58,4.58 0 0 1 0.87,-0.77 0.63,0.63 0 0 1 0.48,0.08 0.56,0.56 0 0 1 0.25,0.86 17.57,17.57 0 0 1 -2.37,2.28 23.25,23.25 0 0 1 -1.82,1.6 z"
       transform="translate(-96.81,-23.54)"
       style="fill:#3e788f;stroke-width:1.01492"
       id="path167" />
    <path
       d="m 597.79,109.62 c 0.09,0.29 0.17,0.57 0.27,0.84 a 32.62,32.62 0 0 0 2.46,6.11 47.57,47.57 0 0 0 3.48,5.43 c 0.28,0.33 0.31,0.62 0.11,0.88 a 0.63,0.63 0 0 1 -1,0.1 q -1,-0.75 -3.45,-5.11 a 33.46,33.46 0 0 1 -3.13,-8.06 21.93,21.93 0 0 1 -6.76,-0.48 37.1,37.1 0 0 1 -5.64,-1.7 9.45,9.45 0 0 1 -2,-0.89 0.61,0.61 0 0 1 -0.17,-1 0.66,0.66 0 0 1 0.63,-0.22 15.52,15.52 0 0 1 2.31,0.92 31,31 0 0 0 3.93,1.3 21.14,21.14 0 0 0 8.65,0.53 1.24,1.24 0 0 1 0.93,0.1 0.5,0.5 0 0 1 0.18,0.31 0.67,0.67 0 0 1 -0.09,0.55 1.27,1.27 0 0 1 -0.71,0.39 z m -12,0 13.8,10.74 a 2,2 0 0 1 0.46,3.13 l -1.85,2.38 a 2,2 0 0 1 -3.14,0.32 l -13.8,-10.74 a 2,2 0 0 1 -0.46,-3.12 l 1.85,-2.38 a 2,2 0 0 1 3.17,-0.32 z m -5.79,18.59 -4.33,-3.38 q -1.91,-1.49 -0.3,-3.55 L 578,118 q 1.61,-2.06 3.52,-0.58 l 11.68,9.09 q 1.93,1.5 0.33,3.57 l -2.56,3.29 q -1.61,2.07 -3.54,0.56 z m 11.37,-12.72 -6.16,-4.8 a 1.06,1.06 0 0 0 -1.67,0.21 l -1.58,2 a 1.07,1.07 0 0 0 0.19,1.7 l 6.16,4.8 z m 0.12,14.94 0.87,-1.12 a 1.3,1.3 0 0 0 -0.28,-2.06 L 581,118.6 a 1.3,1.3 0 0 0 -2.07,0.24 l -0.87,1.12 z m -0.73,0.94 -13.42,-10.47 -0.87,1.12 a 1.3,1.3 0 0 0 0.28,2.06 l 11.1,8.64 a 1.31,1.31 0 0 0 2.07,-0.23 z m -4,-18.38 c 0.23,0.18 0.36,0.84 0.39,2 a 3,3 0 0 1 -0.27,1.64 0.52,0.52 0 0 1 -0.81,0.13 c -0.15,-0.12 -0.21,-0.53 -0.17,-1.23 a 10.7,10.7 0 0 0 0,-1.53 1.18,1.18 0 0 1 0.11,-0.84 0.52,0.52 0 0 1 0.8,-0.16 z m 10.62,3.44 -7.26,-5.66 a 0.56,0.56 0 0 1 -0.16,-0.88 0.58,0.58 0 0 1 0.91,-0.09 l 7.26,5.66 a 0.57,0.57 0 0 1 0.14,0.9 c -0.19,0.33 -0.49,0.35 -0.84,0.08 z m -5,-0.16 -3.08,3.94 6.3,4.9 a 1.07,1.07 0 0 0 1.69,-0.23 l 1.59,-2 a 1.05,1.05 0 0 0 -0.21,-1.67 z m 3.43,3.84 c 0.31,0.24 0.36,0.5 0.14,0.79 a 3.7,3.7 0 0 1 -1.77,0.72 c -0.92,0.18 -1.51,0.16 -1.77,0 a 0.5,0.5 0 0 1 -0.1,-0.79 2.35,2.35 0 0 1 1.07,-0.3 c 0.45,-0.07 1,-0.18 1.52,-0.33 0.52,-0.15 0.8,-0.2 0.97,-0.08 z"
       transform="translate(-96.81,-23.54)"
       style="fill:#3e788f;stroke-width:1.01492"
       id="path169" />
    <ellipse
       cx="192.75999"
       cy="281.42001"
       rx="42.009998"
       ry="42.59"
       style="fill:#3e788f;stroke-width:1.01492"
       id="ellipse171" />
    <ellipse
       cx="294.91"
       cy="278.35001"
       rx="42.009998"
       ry="42.59"
       style="fill:#3e788f;stroke-width:1.01492"
       id="ellipse173" />
    <ellipse
       cx="408.84"
       cy="278.35001"
       rx="42"
       ry="42.59"
       style="fill:#3e788f;stroke-width:1.01492"
       id="ellipse175" />
    <ellipse
       cx="510.14999"
       cy="278.35001"
       rx="42"
       ry="42.59"
       style="fill:#3e788f;stroke-width:1.01492"
       id="ellipse177" />
    <text
       x="-96.809998"
       y="-23.540001"
       id="text179"
       style="stroke-width:1.01492" />
    <path
       d="m 285.78,269.76 v 56.42 h 25.77 v 6.29 h -44 v -62.71 z"
       transform="translate(-96.81,-23.54)"
       style="fill:#ffffff;stroke-width:1.01492"
       id="path181" />
    <path
       d="m 382,302.05 v 31.19 H 363.82 V 270.53 H 382 v 25.22 h 14.84 V 270.53 H 415 v 62.71 h -18.15 v -31.19 z"
       transform="translate(-96.81,-23.54)"
       style="fill:#ffffff;stroke-width:1.01492"
       id="path183" />
    <path
       d="m 529.16,288 -8.45,1.56 a 20.45,20.45 0 0 0 0.55,-4.22 q 0,-10.94 -13.28,-10.93 -10.48,0 -10.48,7.53 0,5.65 11.71,9.69 22.6,7.76 22.6,23 a 17.86,17.86 0 0 1 -6.34,14.31 q -6.34,5.4 -16.86,5.4 -23.29,0 -23.29,-18.06 a 34.52,34.52 0 0 1 0.23,-3.63 l 8.77,-1.93 a 28.89,28.89 0 0 0 -1,6.94 q 0,11.67 13.37,11.67 10.71,0 10.7,-8.41 0,-6.25 -12.82,-11 -18.52,-6.8 -18.51,-21.73 a 16.88,16.88 0 0 1 6.18,-13.62 q 6.18,-5.17 16.24,-5.17 20.68,0.03 20.68,18.6 z"
       transform="translate(-96.81,-23.54)"
       style="fill:#ffffff;stroke-width:1.01492"
       id="path185" />
    <path
       d="m 634,270 v 42.08 q 0,21.64 -23.93,21.64 -23.93,0 -23.84,-21.64 V 270 h 18.2 v 42.64 q 0,8.27 2.36,11.3 2.36,3.03 8.75,3 12.36,0 12.36,-14.88 V 270 Z"
       transform="translate(-96.81,-23.54)"
       style="fill:#ffffff;stroke-width:1.01492"
       id="path187" />
    <ellipse
       cx="446.01999"
       cy="303"
       rx="7.8899999"
       ry="8.8199997"
       style="fill:#3e788f;stroke-width:1.01492"
       id="ellipse189" />
    <ellipse
       cx="333.60999"
       cy="303"
       rx="7.8899999"
       ry="8.8199997"
       style="fill:#3e788f;stroke-width:1.01492"
       id="ellipse191" />
    <ellipse
       cx="226.47"
       cy="303"
       rx="5.3099999"
       ry="5.9400001"
       style="fill:#ffffff;stroke-width:1.01492"
       id="ellipse193" />
    <ellipse
       cx="446.01999"
       cy="303"
       rx="5.3099999"
       ry="5.9400001"
       style="fill:#ffffff;stroke-width:1.01492"
       id="ellipse195" />
    <ellipse
       cx="333.60999"
       cy="303"
       rx="5.3099999"
       ry="5.9400001"
       style="fill:#ffffff;stroke-width:1.01492"
       id="ellipse197" />
    <ellipse
       cx="545.87"
       cy="303"
       rx="5.3099999"
       ry="5.9400001"
       style="fill:#ffffff;stroke-width:1.01492"
       id="ellipse199" />
    <path
       d="m 563.08,487.14 -1.94,1.41 -1.32,-7.55 1.39,-1 z"
       transform="translate(-96.81,-23.54)"
       style="fill:#3e788f;stroke-width:1.01492"
       id="path201" />
  </g>
</svg>
